HIERARCHY
ROOT Root
{
  OFFSET 0.0 0.0 0.0
  CHANNELS 6 Xposition Yposition Zposition Zrotation Yrotation Xrotation
  JOINT Hips
  {
    OFFSET 0.0 100.0 0.0
    CHANNELS 6 Xposition Yposition Zposition Zrotation Yrotation Xrotation
    JOINT Spine1
    {
      OFFSET 5.003913 -0.037094 -0.013727
      CHANNELS 3 Zrotation Yrotation Xrotation
      JOINT Spine2
      {
        OFFSET 7.125363 -1e-06 0.0
        CHANNELS 3 Zrotation Yrotation Xrotation
        JOINT Chest
        {
          OFFSET 7.594027 1e-06 0.0
          CHANNELS 3 Zrotation Yrotation Xrotation
          JOINT Neck1
          {
            OFFSET 26.313086 -0.460272 -0.181672
            CHANNELS 3 Zrotation Yrotation Xrotation
            JOINT Neck2
            {
              OFFSET 8.045911 0.0 0.0
              CHANNELS 3 Zrotation Yrotation Xrotation
              JOINT Head
              {
                OFFSET 6.432774 0.0 0.0
                CHANNELS 3 Zrotation Yrotation Xrotation
                JOINT HeadEnd
                {
                  OFFSET 16.169773 0.06451 0.00362
                  CHANNELS 3 Zrotation Yrotation Xrotation
                }
                JOINT Jaw
                {
                  OFFSET 0.108741 3.12938 0.002639
                  CHANNELS 3 Zrotation Yrotation Xrotation
                }
                JOINT LeftEye
                {
                  OFFSET 4.45173 8.166359 3.206392
                  CHANNELS 3 Zrotation Yrotation Xrotation
                }
                JOINT RightEye
                {
                  OFFSET 4.436895 8.135758 -3.222429
                  CHANNELS 3 Zrotation Yrotation Xrotation
                }
              }
            }
          }
          JOINT LeftShoulder
          {
            OFFSET 23.218927 5.195579 1.621656
            CHANNELS 3 Zrotation Yrotation Xrotation
            JOINT LeftArm
            {
              OFFSET 15.902118 2e-06 -2e-06
              CHANNELS 3 Zrotation Yrotation Xrotation
              JOINT LeftForeArm
              {
                OFFSET 28.739307 0.0 -1e-06
                CHANNELS 3 Zrotation Yrotation Xrotation
                JOINT LeftHand
                {
                  OFFSET 27.093981 -4e-06 0.0
                  CHANNELS 3 Zrotation Yrotation Xrotation
                  JOINT LeftHandThumb1
                  {
                    OFFSET 2.276781 3.380274 0.83384
                    CHANNELS 3 Zrotation Yrotation Xrotation
                    JOINT LeftHandThumb2
                    {
                      OFFSET 4.705309 -1e-06 -1e-06
                      CHANNELS 3 Zrotation Yrotation Xrotation
                      JOINT LeftHandThumb3
                      {
                        OFFSET 2.798515 0.0 3e-06
                        CHANNELS 3 Zrotation Yrotation Xrotation
                        JOINT LeftHandThumbEnd
                        {
                          OFFSET 3.180793 4e-06 -4e-06
                          CHANNELS 3 Zrotation Yrotation Xrotation
                        }
                      }
                    }
                  }
                  JOINT LeftHandIndex1
                  {
                    OFFSET 3.247786 2.352677 0.137192
                    CHANNELS 3 Zrotation Yrotation Xrotation
                    JOINT LeftHandIndex2
                    {
                      OFFSET 6.367095 1e-06 0.0
                      CHANNELS 3 Zrotation Yrotation Xrotation
                      JOINT LeftHandIndex3
                      {
                        OFFSET 3.662364 0.0 0.0
                        CHANNELS 3 Zrotation Yrotation Xrotation
                        JOINT LeftHandIndex4
                        {
                          OFFSET 2.329242 4e-06 -4e-06
                          CHANNELS 3 Zrotation Yrotation Xrotation
                          JOINT LeftHandIndexEnd
                          {
                            OFFSET 2.767823 1e-06 0.0
                            CHANNELS 3 Zrotation Yrotation Xrotation
                          }
                        }
                      }
                    }
                  }
                  JOINT LeftHandMiddle1
                  {
                    OFFSET 3.163612 0.945023 -0.406112
                    CHANNELS 3 Zrotation Yrotation Xrotation
                    JOINT LeftHandMiddle2
                    {
                      OFFSET 6.276789 3e-06 0.0
                      CHANNELS 3 Zrotation Yrotation Xrotation
                      JOINT LeftHandMiddle3
                      {
                        OFFSET 4.35652 -1e-06 4e-06
                        CHANNELS 3 Zrotation Yrotation Xrotation
                        JOINT LeftHandMiddle4
                        {
                          OFFSET 2.996877 0.0 8e-06
                          CHANNELS 3 Zrotation Yrotation Xrotation
                          JOINT LeftHandMiddleEnd
                          {
                            OFFSET 2.323256 3e-06 -4e-06
                            CHANNELS 3 Zrotation Yrotation Xrotation
                          }
                        }
                      }
                    }
                  }
                  JOINT LeftHandRing1
                  {
                    OFFSET 2.882606 -0.309162 0.107445
                    CHANNELS 3 Zrotation Yrotation Xrotation
                    JOINT LeftHandRing2
                    {
                      OFFSET 6.033198 0.0 4e-06
                      CHANNELS 3 Zrotation Yrotation Xrotation
                      JOINT LeftHandRing3
                      {
                        OFFSET 4.350578 3e-06 0.0
                        CHANNELS 3 Zrotation Yrotation Xrotation
                        JOINT LeftHandRing4
                        {
                          OFFSET 2.651321 2e-06 -7e-06
                          CHANNELS 3 Zrotation Yrotation Xrotation
                          JOINT LeftHandRingEnd
                          {
                            OFFSET 1.937663 1e-06 -4e-06
                            CHANNELS 3 Zrotation Yrotation Xrotation
                          }
                        }
                      }
                    }
                  }
                  JOINT LeftHandPinky1
                  {
                    OFFSET 2.865315 -1.525436 0.575687
                    CHANNELS 3 Zrotation Yrotation Xrotation
                    JOINT LeftHandPinky2
                    {
                      OFFSET 5.54936 1e-06 -8e-06
                      CHANNELS 3 Zrotation Yrotation Xrotation
                      JOINT LeftHandPinky3
                      {
                        OFFSET 3.070974 0.0 -4e-06
                        CHANNELS 3 Zrotation Yrotation Xrotation
                        JOINT LeftHandPinky4
                        {
                          OFFSET 1.549672 1e-06 0.0
                          CHANNELS 3 Zrotation Yrotation Xrotation
                          JOINT LeftHandPinkyEnd
                          {
                            OFFSET 1.952123 0.0 0.0
                            CHANNELS 3 Zrotation Yrotation Xrotation
                          }
                        }
                      }
                    }
                  }
                }
              }
            }
          }
          JOINT RightShoulder
          {
            OFFSET 23.161716 5.296122 -1.380114
            CHANNELS 3 Zrotation Yrotation Xrotation
            JOINT RightArm
            {
              OFFSET -16.027195 -2e-06 1.1e-05
              CHANNELS 3 Zrotation Yrotation Xrotation
              JOINT RightForeArm
              {
                OFFSET -28.736639 4e-06 2e-06
                CHANNELS 3 Zrotation Yrotation Xrotation
                JOINT RightHand
                {
                  OFFSET -27.133619 6e-06 0.0
                  CHANNELS 3 Zrotation Yrotation Xrotation
                  JOINT RightHandThumb1
                  {
                    OFFSET -2.274328 -3.351035 -0.83067
                    CHANNELS 3 Zrotation Yrotation Xrotation
                    JOINT RightHandThumb2
                    {
                      OFFSET -4.703594 -3e-06 2e-06
                      CHANNELS 3 Zrotation Yrotation Xrotation
                      JOINT RightHandThumb3
                      {
                        OFFSET -2.794935 -4e-06 -3e-06
                        CHANNELS 3 Zrotation Yrotation Xrotation
                        JOINT RightHandThumbEnd
                        {
                          OFFSET -3.183852 4e-06 1e-06
                          CHANNELS 3 Zrotation Yrotation Xrotation
                        }
                      }
                    }
                  }
                  JOINT RightHandIndex1
                  {
                    OFFSET -3.253496 -2.33755 -0.127667
                    CHANNELS 3 Zrotation Yrotation Xrotation
                    JOINT RightHandIndex2
                    {
                      OFFSET -6.344434 0.0 0.0
                      CHANNELS 3 Zrotation Yrotation Xrotation
                      JOINT RightHandIndex3
                      {
                        OFFSET -3.654871 0.0 -8e-06
                        CHANNELS 3 Zrotation Yrotation Xrotation
                        JOINT RightHandIndex4
                        {
                          OFFSET -2.327586 -1e-06 0.0
                          CHANNELS 3 Zrotation Yrotation Xrotation
                          JOINT RightHandIndexEnd
                          {
                            OFFSET -2.770001 3e-06 8e-06
                            CHANNELS 3 Zrotation Yrotation Xrotation
                          }
                        }
                      }
                    }
                  }
                  JOINT RightHandMiddle1
                  {
                    OFFSET -3.168223 -0.944764 0.411762
                    CHANNELS 3 Zrotation Yrotation Xrotation
                    JOINT RightHandMiddle2
                    {
                      OFFSET -6.266691 -1e-06 -4e-06
                      CHANNELS 3 Zrotation Yrotation Xrotation
                      JOINT RightHandMiddle3
                      {
                        OFFSET -4.348901 0.0 0.0
                        CHANNELS 3 Zrotation Yrotation Xrotation
                        JOINT RightHandMiddle4
                        {
                          OFFSET -3.00024 2e-06 -4e-06
                          CHANNELS 3 Zrotation Yrotation Xrotation
                          JOINT RightHandMiddleEnd
                          {
                            OFFSET -2.321477 -4e-06 -4e-06
                            CHANNELS 3 Zrotation Yrotation Xrotation
                          }
                        }
                      }
                    }
                  }
                  JOINT RightHandRing1
                  {
                    OFFSET -2.885654 0.293261 -0.119232
                    CHANNELS 3 Zrotation Yrotation Xrotation
                    JOINT RightHandRing2
                    {
                      OFFSET -6.032835 -1e-06 -4e-06
                      CHANNELS 3 Zrotation Yrotation Xrotation
                      JOINT RightHandRing3
                      {
                        OFFSET -4.33881 0.0 -4e-06
                        CHANNELS 3 Zrotation Yrotation Xrotation
                        JOINT RightHandRing4
                        {
                          OFFSET -2.654903 -4e-06 -4e-06
                          CHANNELS 3 Zrotation Yrotation Xrotation
                          JOINT RightHandRingEnd
                          {
                            OFFSET -1.935122 0.0 4e-06
                            CHANNELS 3 Zrotation Yrotation Xrotation
                          }
                        }
                      }
                    }
                  }
                  JOINT RightHandPinky1
                  {
                    OFFSET -2.866241 1.503904 -0.60527
                    CHANNELS 3 Zrotation Yrotation Xrotation
                    JOINT RightHandPinky2
                    {
                      OFFSET -5.553177 -2e-06 0.0
                      CHANNELS 3 Zrotation Yrotation Xrotation
                      JOINT RightHandPinky3
                      {
                        OFFSET -3.062664 -1e-06 -4e-06
                        CHANNELS 3 Zrotation Yrotation Xrotation
                        JOINT RightHandPinky4
                        {
                          OFFSET -1.546529 2e-06 4e-06
                          CHANNELS 3 Zrotation Yrotation Xrotation
                          JOINT RightHandPinkyEnd
                          {
                            OFFSET -1.952341 0.0 -4e-06
                            CHANNELS 3 Zrotation Yrotation Xrotation
                          }
                        }
                      }
                    }
                  }
                }
              }
            }
          }
        }
      }
    }
    JOINT LeftLeg
    {
      OFFSET -8.443107 2.567604 10.043214
      CHANNELS 3 Zrotation Yrotation Xrotation
      JOINT LeftShin
      {
        OFFSET 43.229198 1e-06 -1e-06
        CHANNELS 3 Zrotation Yrotation Xrotation
        JOINT LeftFoot
        {
          OFFSET 42.298611 1e-06 1e-06
          CHANNELS 3 Zrotation Yrotation Xrotation
          JOINT LeftToeBase
          {
            OFFSET 14.165858 1e-06 0.0
            CHANNELS 3 Zrotation Yrotation Xrotation
            JOINT LeftToeEnd
            {
              OFFSET 6.7141 -0.234461 0.0
              CHANNELS 3 Zrotation Yrotation Xrotation
            }
          }
        }
      }
    }
    JOINT RightLeg
    {
      OFFSET -8.303923 2.592729 -10.047278
      CHANNELS 3 Zrotation Yrotation Xrotation
      JOINT RightShin
      {
        OFFSET -43.369682 0.0 1e-06
        CHANNELS 3 Zrotation Yrotation Xrotation
        JOINT RightFoot
        {
          OFFSET -42.260784 4e-06 2e-06
          CHANNELS 3 Zrotation Yrotation Xrotation
          JOINT RightToeBase
          {
            OFFSET -14.222245 -2e-06 -1e-06
            CHANNELS 3 Zrotation Yrotation Xrotation
            JOINT RightToeEnd
            {
              OFFSET -6.660062 0.232574 -2e-06
              CHANNELS 3 Zrotation Yrotation Xrotation
            }
          }
        }
      }
    }
  }
}
MOTION
Frames: 5
Frame Time: 0.03333333333333333
0.0 0.0 0.0 0.0 -0.0 0.0 4.622109 8.947307 0.241371 122.618164 -83.996391 51.19809 -6.713733 -2.114972 -1.114362 -13.558943 1.155312 2.264483 14.800981 -0.898544 2.7414 12.710958 -5.291399 3.273363 -2.847177 0.433132 -3.105328 -22.212637 1.069349 -2.599395 6e-06 0.0 0.0 -0.18236 -0.008079 0.06121 -0.186027 0.255897 -0.012087 -0.101112 -0.272002 0.149581 -34.189507 -62.956367 47.3423 79.600876 -48.232124 -91.66832 141.338699 -0.66947 0.153472 -13.496966 14.247345 28.323496 17.636633 -26.322733 52.41119 -19.466658 -14.395598 29.410385 -1e-06 -8.774822 -1e-06 14.280828 -16.990625 7.007988 -0.609776 -1.795653 -3.889328 -4.807087 -11.046808 -2.937848 4e-06 -20.976015 3e-06 -5.019974 -25.033546 -4.031876 6e-06 -0.0 1e-06 -10.634533 -5.686969 -3.565587 10.573275 -17.922947 -3.1139 3e-06 -13.821206 4e-06 -0.501779 -31.181498 -4.02701 -10.495858 -57.474289 7.220206 -13.982712 -7.150196 -2.875042 13.77273 -8.401491 -3.218243 0.347735 -34.211544 0.771658 -0.963031 -17.733366 2.621022 -1e-06 0.0 0.0 -17.346413 -20.095213 -4.201782 21.757555 -1.638376 3.866426 1e-06 -6.338823 1e-06 -1.69759 -22.59174 -6.194004 -0.0 -6e-06 -1e-06 146.764877 -59.074368 37.765919 76.546974 -32.016705 -50.694878 137.434616 -0.747442 -0.245617 -1.795312 38.654633 60.293762 22.182114 -20.375902 49.933323 -16.701815 -16.743532 28.476532 -1e-06 -12.690603 -0.0 16.073446 -17.124346 2.479498 -0.10592 -1.513856 -4.275878 -5.03904 -5.612871 -2.953556 5e-06 -11.020523 -3e-06 -6.111298 -15.895338 -3.84047 -1e-06 -1e-06 -1e-06 -10.283371 -5.680288 -4.341835 11.028291 -11.302404 -2.372632 -1.384271 -14.238583 -6.320122 -0.625442 -26.924191 -3.8276 -3.854815 -49.643036 -3.773679 -13.708526 -7.363477 -3.720938 18.141148 -14.052738 -3.242674 6e-06 -18.787271 -1e-06 -0.429713 -8.456045 2.555504 1e-06 0.0 0.0 -15.923538 -20.094484 -5.473579 30.419218 -7.190823 1.735923 1e-06 -8.162925 1e-06 -1.861905 -22.861471 -6.167942 1e-06 -2e-06 -1e-06 -174.830688 -11.746949 121.719406 1.543417 26.953453 -91.692909 -105.867592 -32.675652 -4.123362 -17.10552 1.204649 1.582633 -0.999999 0.0 1e-06 -8.071538 -12.431112 -146.776596 -33.705215 -14.29331 150.245529 -105.837196 25.56506 -22.388653 -15.319037 0.43607 1.223563 -1.000002 -0.0 -0.0 
0.0 0.0 0.0 0.0 -0.0 0.0 4.702038 8.765686 0.421154 122.064537 -83.824638 51.81089 -6.949224 -1.969347 -1.12803 -13.720702 1.119813 2.276571 14.934131 -0.625366 2.76945 12.023856 -5.053678 3.221093 -2.84074 0.502445 -2.805175 -22.272646 1.238313 -2.57568 4e-06 0.0 0.0 -0.197797 -0.057721 0.087027 -0.171743 0.182602 0.027517 -0.106525 -0.292914 0.157846 -34.544743 -63.662815 47.974758 79.850281 -48.205582 -91.325821 140.878876 -0.44415 0.172212 -13.14073 13.72447 29.223013 17.636633 -26.322733 52.411194 -19.466667 -14.395598 29.410395 -1e-06 -8.774824 -2e-06 14.311524 -17.058784 7.032921 -0.609776 -1.795654 -3.889328 -4.80709 -11.046813 -2.93785 4e-06 -20.976021 -1e-06 -5.019974 -25.03356 -4.031879 6e-06 1e-06 0.0 -10.634537 -5.686971 -3.565587 10.573275 -17.922958 -3.113903 3e-06 -13.821213 1e-06 -0.501776 -31.181511 -4.027017 -10.409679 -57.874619 7.297055 -13.982716 -7.150199 -2.875043 13.772733 -8.401496 -3.218242 0.347733 -34.211559 0.771653 -0.963031 -17.733376 2.621021 -1e-06 -1e-06 -0.0 -17.346422 -20.095222 -4.201783 21.757561 -1.638376 3.866425 3e-06 -6.338825 -2e-06 -1.697588 -22.591745 -6.194006 -0.0 -7e-06 -2e-06 146.499557 -59.522728 38.163506 77.142746 -31.293308 -50.269096 136.868347 -0.466629 -0.295672 -2.390417 38.348778 60.031448 22.182119 -20.375904 49.933331 -16.701813 -16.74353 28.476532 -2e-06 -12.690603 -2e-06 16.096113 -17.000614 2.441765 -0.105919 -1.513855 -4.275885 -5.039041 -5.612873 -2.953553 5e-06 -11.020525 -4e-06 -6.111301 -15.895336 -3.840472 -0.0 -1e-06 -1e-06 -10.283373 -5.680289 -4.341838 11.028295 -11.302407 -2.372631 -1.38427 -14.238583 -6.320122 -0.625441 -26.924194 -3.827599 -3.831821 -49.504486 -3.673848 -13.708527 -7.363478 -3.720941 18.141148 -14.052741 -3.242673 7e-06 -18.787273 0.0 -0.429714 -8.456048 2.555503 1e-06 -0.0 -1e-06 -15.923539 -20.094484 -5.473584 30.419222 -7.190827 1.735924 -0.0 -8.162927 1e-06 -1.861903 -22.861475 -6.167945 1e-06 -2e-06 -1e-06 -174.09549 -11.833652 121.736237 1.501675 25.905899 -91.878944 -105.663559 -32.848309 -3.681484 -17.329123 1.210876 1.627971 -0.999998 0.0 1e-06 -7.255684 -12.879759 -146.348328 -32.471661 -14.709294 149.076889 -105.709457 25.556158 -22.333246 -15.028593 0.472823 1.196742 -1.000001 -0.0 -0.0 
0.0 0.0 0.0 0.0 -0.0 0.0 4.790701 8.645016 0.648539 121.6036 -83.447372 52.608879 -7.167821 -1.927241 -1.118757 -13.876071 1.169198 2.231726 15.054806 -0.427698 2.681301 11.434486 -4.57886 3.299446 -2.85111 0.482129 -2.565279 -22.454378 1.363081 -2.550464 7e-06 -0.0 0.0 -0.199532 -0.090898 0.103884 -0.179645 0.130523 0.050747 -0.126869 -0.303489 0.163877 -34.852703 -64.484291 48.536171 80.008873 -48.190258 -90.894165 140.060745 -0.17971 0.280838 -12.934133 13.287046 30.193476 17.636627 -26.322729 52.411182 -19.466661 -14.395592 29.410385 -0.0 -8.774821 -3e-06 14.325904 -17.171028 7.038324 -0.609776 -1.795654 -3.889328 -4.807087 -11.046809 -2.937853 5e-06 -20.976015 -3e-06 -5.019969 -25.033554 -4.031878 6e-06 -0.0 0.0 -10.634531 -5.686969 -3.56559 10.573268 -17.922951 -3.113898 3e-06 -13.821208 1e-06 -0.50178 -31.181505 -4.027013 -10.42801 -58.155884 7.376132 -13.982711 -7.150198 -2.875043 13.772728 -8.401493 -3.218242 0.347736 -34.211552 0.771654 -0.963031 -17.73337 2.621022 -0.0 -1e-06 0.0 -17.346413 -20.095217 -4.20178 21.757555 -1.638374 3.866427 2e-06 -6.338823 -1e-06 -1.697587 -22.591745 -6.194005 -1e-06 -6e-06 -1e-06 146.13916 -60.063969 38.594517 77.745865 -30.66408 -49.682175 136.018814 -0.335401 -0.237551 -3.01582 38.216198 60.169876 22.182117 -20.375898 49.933327 -16.701811 -16.74353 28.476532 -1e-06 -12.690603 -1e-06 16.090942 -16.943283 2.475335 -0.10592 -1.513855 -4.27588 -5.03904 -5.612871 -2.953557 5e-06 -11.02052 -3e-06 -6.111301 -15.89533 -3.840467 -0.0 -2e-06 0.0 -10.283371 -5.680288 -4.341839 11.028294 -11.302406 -2.372633 -1.384269 -14.238581 -6.320123 -0.625442 -26.924187 -3.827599 -3.9641 -49.417355 -3.57422 -13.708526 -7.363476 -3.72094 18.141148 -14.052739 -3.242672 6e-06 -18.78727 -0.0 -0.42971 -8.456045 2.555502 1e-06 -0.0 -1e-06 -15.923536 -20.094482 -5.473584 30.41921 -7.190823 1.735926 -1e-06 -8.162925 0.0 -1.861906 -22.861467 -6.167942 0.0 -1e-06 -0.0 -173.156601 -12.041308 122.50798 0.844595 24.448557 -93.098343 -105.85939 -32.898605 -3.057222 -17.53916 1.226201 1.639809 -0.999998 -0.0 -0.0 -5.979395 -13.225011 -146.333603 -31.159227 -14.409317 147.711273 -105.661827 25.266104 -22.789337 -15.108765 0.493914 1.199267 -1.0 -1e-06 0.0 
0.0 0.0 0.0 0.0 -0.0 0.0 4.801035 8.540565 0.914713 121.307777 -83.036461 53.216732 -7.389487 -1.907901 -1.103954 -14.01745 1.2447 2.197851 15.124629 -0.192381 2.556214 10.858638 -3.971897 3.398379 -2.859413 0.413325 -2.327383 -22.687546 1.514488 -2.392671 5e-06 0.0 0.0 -0.200949 -0.122729 0.118868 -0.198859 0.090145 0.06032 -0.159158 -0.32388 0.180762 -35.244461 -65.317833 49.209019 80.045837 -48.292389 -90.702301 139.10762 -0.010275 0.382585 -12.730601 12.973775 31.160902 17.636627 -26.322725 52.411182 -19.466658 -14.395596 29.410381 -1e-06 -8.774821 -1e-06 14.295139 -17.264774 7.047284 -0.609776 -1.795652 -3.889328 -4.807088 -11.04681 -2.93785 5e-06 -20.976011 -1e-06 -5.019968 -25.033554 -4.031879 5e-06 -0.0 1e-06 -10.634531 -5.68697 -3.565588 10.573271 -17.922947 -3.113902 3e-06 -13.821206 1e-06 -0.501776 -31.181505 -4.027015 -10.477747 -58.245811 7.419327 -13.982711 -7.150196 -2.875042 13.772726 -8.401492 -3.218241 0.347735 -34.211544 0.771655 -0.963031 -17.733368 2.621021 0.0 0.0 -0.0 -17.346413 -20.095213 -4.201781 21.757553 -1.638375 3.866426 1e-06 -6.338821 1e-06 -1.69759 -22.591742 -6.194002 1e-06 -7e-06 -2e-06 145.75383 -60.553349 38.907127 78.471817 -30.196192 -48.959545 135.016495 -0.23058 -0.139008 -3.474197 38.114746 60.519821 22.182108 -20.375893 49.933304 -16.701811 -16.743525 28.476522 -2e-06 -12.690598 -2e-06 16.07201 -16.962317 2.518092 -0.10592 -1.513856 -4.27588 -5.039039 -5.612873 -2.953556 5e-06 -11.020523 -3e-06 -6.111298 -15.895338 -3.840469 1e-06 -2e-06 0.0 -10.283368 -5.680288 -4.341838 11.028291 -11.302405 -2.372632 -1.384268 -14.238583 -6.320121 -0.625443 -26.924194 -3.827598 -4.094167 -49.391701 -3.515882 -13.708522 -7.363476 -3.720938 18.141146 -14.052739 -3.242674 6e-06 -18.78727 -3e-06 -0.429713 -8.456045 2.555501 2e-06 -1e-06 -1e-06 -15.923532 -20.094482 -5.473582 30.419205 -7.190823 1.735923 1e-06 -8.162925 -1e-06 -1.861901 -22.861467 -6.167942 0.0 -1e-06 -1e-06 -171.978699 -12.411231 123.077705 0.2992 22.416262 -94.135887 -105.634224 -32.785316 -2.641655 -17.637697 1.239794 1.649825 -0.999998 0.0 0.0 -4.580739 -13.542562 -146.015793 -29.613811 -14.175929 145.795227 -105.613945 25.019083 -23.385571 -15.20169 0.501943 1.213971 -1.000001 -0.0 0.0 
0.0 0.0 0.0 0.0 -0.0 0.0 4.739844 8.429104 1.205078 121.411598 -82.627144 53.293243 -7.641255 -1.864382 -1.108443 -14.145335 1.313496 2.171647 15.207239 0.11601 2.430385 10.212243 -3.239701 3.483416 -2.863778 0.343333 -1.97464 -22.861475 1.70486 -2.084482 6e-06 -0.0 0.0 -0.206131 -0.151996 0.130705 -0.218321 0.053947 0.061067 -0.188674 -0.343878 0.200894 -35.778164 -66.14373 50.038132 79.933578 -48.655922 -90.79879 138.133972 0.094897 0.428233 -12.499775 12.753949 32.247387 17.636633 -26.322735 52.411198 -19.466656 -14.3956 29.410389 -0.0 -8.774822 -1e-06 14.28976 -17.366652 7.056962 -0.609777 -1.795654 -3.889329 -4.807091 -11.046809 -2.937848 3e-06 -20.976015 -2e-06 -5.019972 -25.033556 -4.031879 5e-06 1e-06 -0.0 -10.634535 -5.686972 -3.565589 10.57327 -17.922951 -3.113898 1e-06 -13.821206 2e-06 -0.501779 -31.181498 -4.027018 -10.53167 -58.323936 7.468011 -13.982716 -7.150199 -2.875043 13.77273 -8.401492 -3.218242 0.34773 -34.211544 0.771658 -0.963031 -17.73337 2.621021 0.0 -0.0 -0.0 -17.346422 -20.095219 -4.201784 21.757557 -1.638372 3.86643 2e-06 -6.338823 0.0 -1.697592 -22.591742 -6.194004 -2e-06 -7e-06 -2e-06 145.333923 -61.026184 39.112995 79.399071 -29.719942 -48.152428 133.93045 -0.11966 -0.072125 -3.980017 37.854763 60.813736 22.182114 -20.375891 49.933319 -16.701817 -16.74353 28.476532 -1e-06 -12.690604 -0.0 16.08687 -17.001694 2.529788 -0.10592 -1.513856 -4.275882 -5.039041 -5.612873 -2.953557 4e-06 -11.020523 -4e-06 -6.1113 -15.895334 -3.840469 -0.0 1e-06 -1e-06 -10.283372 -5.680289 -4.341839 11.028294 -11.302404 -2.372632 -1.38427 -14.238581 -6.320121 -0.625444 -26.924185 -3.827598 -4.179442 -49.392113 -3.493383 -13.708527 -7.363478 -3.720939 18.141151 -14.052739 -3.242675 5e-06 -18.787271 -0.0 -0.429713 -8.456045 2.555504 1e-06 0.0 -1e-06 -15.923536 -20.094486 -5.473585 30.419214 -7.190823 1.735925 1e-06 -8.162927 -0.0 -1.861905 -22.861469 -6.167943 0.0 -1e-06 -1e-06 -170.489334 -12.846678 123.152901 0.156132 19.747515 -94.539825 -104.846703 -32.764057 -2.427458 -17.656454 1.252023 1.667731 -0.999999 0.0 0.0 -3.230822 -14.033461 -145.000122 -27.730141 -14.500955 143.069473 -105.521286 25.051598 -23.922602 -15.255301 0.507037 1.225927 -1.000001 1e-06 0.0 
